<?xml version="1.0" encoding="UTF-8"?>
<svg id="Layer_2" data-name="Layer 2" xmlns="http://www.w3.org/2000/svg" viewBox="0 0 852.69 397.33">
  <defs>
    <style>
      .cls-1 {
        fill: #161616;
      }

      .cls-1, .cls-2, .cls-3, .cls-4 {
        stroke-width: 0px;
      }

      .cls-2 {
        fill: #c2f32c;
      }

      .cls-3 {
        fill: #b7ff1a;
      }

      .cls-4 {
        fill: #185b2d;
      }
    </style>
  </defs>
  <g id="Layer_1-2" data-name="Layer 1">
    <g>
      <g>
        <g>
          <path class="cls-2" d="M141.55,78.56l-37.71-46.19,18.45-13.37,32.02,50.29c-2.23,1.29-4.42,2.7-6.55,4.25-2.18,1.58-4.25,3.26-6.21,5.03Z"/>
          <path class="cls-2" d="M149.58,31.87l21.19-8.37,11.88,36.32c-6.11.74-12.17,2.24-18.03,4.52l-15.04-32.47Z"/>
          <path class="cls-2" d="M195.74,59.37L201.75,0l22.5,3.59-12.93,58.25c-5.09-1.36-10.31-2.18-15.57-2.46Z"/>
          <path class="cls-2" d="M234.44,31.99l20.91,9.06-17.28,34.07c-4.96-3.86-10.32-7.04-15.96-9.51l12.34-33.63Z"/>
          <path class="cls-2" d="M116.87,130.48l-59.38-6,3.59-22.5,58.25,12.93c-1.36,5.09-2.18,10.31-2.46,15.57Z"/>
          <path class="cls-2" d="M89.49,91.79l9.06-20.91,34.07,17.28c-3.86,4.96-7.04,10.32-9.51,15.97l-33.63-12.34Z"/>
          <path class="cls-2" d="M154.37,87.92c-20.82,15.09-31.13,39.28-29.46,63.17-6.62-26.52,2.96-55.57,26.44-72.6,30.86-22.37,74-15.49,96.37,15.36,1.59,2.19,3.03,4.44,4.32,6.75-23.87-29.26-66.72-35.13-97.67-12.69Z"/>
        </g>
        <path class="cls-4" d="M333.11,98.98c.14,2.21.23,4.44.29,6.65.08,2.83.12,5.7.12,8.53,23.19,34.86,32.01,79.3,20.21,122.7-22.28,82.69-111.04,130.94-192.03,103.08-17.13-5.54-32.67-14.24-46.15-25.23-5.44,1.59-10.91,3.06-16.37,4.42-1.34.33-2.67.66-4.03.97,1.92,1.63,3.88,3.2,5.87,4.73,91.95,71.44,227.81,25.88,258.44-86.41,13.74-51.15,1.7-101.33-26.35-139.42Z"/>
        <path class="cls-4" d="M318.74,140.39c1.13-12.04,1.41-23.53,1.09-34.36-5.05,11.09-11.58,22.65-20.06,34.09-8.68,11.71-17.8,21.17-26.28,28.7,3.47,2.35,7.56,4.81,12.25,7.13,5.83,2.88,11.29,4.91,16.04,6.35-30.55,26.56-74.98,59.53-134,87.03-64.42,30.02-123.4,42.88-166.72,48.65,27.2-.3,59.5-3.27,94.87-12.02,11.23-2.78,22.02-5.96,32.39-9.45.05.05.1.1.15.15,8.61,8.67,20.31,13.55,32.52,13.82,25.32.55,65.33-3.56,99.41-30.55,48.87-38.7,54.63-99.97,58.35-139.53Z"/>
        <path class="cls-3" d="M301.77,182.3c-4.75-1.44-10.21-3.47-16.04-6.35-4.69-2.32-8.77-4.78-12.25-7.13,8.47-7.53,17.6-16.98,26.28-28.7,8.48-11.45,15.01-23,20.06-34.09-.91-30.87-6.74-56.4-12.01-74.08-2.52,27.09-12.01,78.29-50.6,119.29-11.48,12.19-23.4,21.22-34.29,27.93,12.75,5.12,25.49,10.23,38.24,15.35-27.7,24.18-67.3,53.67-119.48,78.68-55.03,26.37-105.11,38.69-141.69,44.8.35,0,.7,0,1.05-.01,43.33-5.76,102.3-18.62,166.72-48.65,59.02-27.5,103.45-60.47,134-87.03Z"/>
        <path class="cls-4" d="M91.86,234.23c2.53,10.24,6.31,19.58,10.81,28.01,13.27-6.4,26.95-13.83,40.85-22.51,19.43-12.12,36.39-24.83,50.98-37.13-13.38-8.87-26.75-17.74-40.13-26.6,24.19-8.44,79.33-31.68,120.91-89.89,1.72-2.4,3.35-4.8,4.93-7.19-1.65,1.56-3.28,2.95-4.84,4.19-31.87,25.28-70.06,13.84-129.39,44.67-6.34,3.29-13.29,7.26-20.89,13.63-5.21,4.36-33.83,28.33-36.19,65.73-.74,11.78,1.38,20.68,2.97,27.1Z"/>
      </g>
      <g>
        <path class="cls-1" d="M469.9,71.7c24.81,0,37.22,10.59,37.22,31.77,0,6.86-1.54,13.29-4.62,19.29-3.08,6-7.24,10.67-12.48,14-6.96,4.44-17.6,6.66-31.93,6.66h-21.18l-7.57,36.01h-28.14l22.85-107.73h45.85ZM441.61,121.48h18.91c12.81,0,19.22-5.09,19.22-15.28,0-4.74-1.46-7.87-4.39-9.38-2.92-1.51-7.06-2.27-12.41-2.27h-15.74l-5.6,26.93Z"/>
        <path class="cls-1" d="M574,179.43h-24.66l2.27-10.89c-6.05,8.78-14.68,13.16-25.87,13.16-7.06,0-12.76-1.92-17.1-5.75-4.34-3.83-6.51-8.88-6.51-15.13,0-3.33.5-7.41,1.51-12.26l9.99-47.21h25.87l-9.08,43.12c-.81,4.24-1.21,7.21-1.21,8.93,0,2.52.88,4.49,2.65,5.9s4.11,2.12,7.04,2.12c4.24,0,7.82-1.56,10.74-4.69,2.93-3.13,5.04-7.62,6.36-13.47l8.93-41.91h25.57l-16.49,78.07Z"/>
        <path class="cls-1" d="M652.07,123.29c-3.73-1.01-7.01-1.51-9.83-1.51-7.16,0-12.56,1.99-16.19,5.98-3.63,3.98-6.25,9.66-7.87,17.02l-7.41,34.65h-25.57l16.64-78.07h24.36l-3.03,13.32c3.63-5.14,7.39-9,11.27-11.58s8.7-3.86,14.45-3.86c2.42,0,5.09.3,8.02.91l-4.84,23.15Z"/>
        <path class="cls-1" d="M709.79,175.57c-7.31,4.19-15.91,6.28-25.8,6.28-11.6,0-20.73-3.05-27.39-9.15-6.66-6.1-9.99-14.9-9.99-26.4,0-13.72,4.26-24.97,12.79-33.74s19.39-13.16,32.61-13.16c11.6,0,20.68,3.1,27.24,9.31,6.56,6.2,9.83,14.75,9.83,25.65,0,3.63-.4,7.72-1.21,12.26h-56.89c-.1.81-.15,1.71-.15,2.72,0,4.94,1.29,8.73,3.86,11.35,2.57,2.62,6.23,3.93,10.97,3.93,6.56,0,11.2-2.82,13.92-8.47h25.12c-2.62,8.78-7.59,15.26-14.9,19.44ZM705.02,132.22v-1.82c0-4.34-1.21-7.72-3.63-10.14s-5.7-3.63-9.83-3.63c-4.44,0-8.27,1.36-11.5,4.08-3.23,2.72-5.5,6.56-6.81,11.5h31.77Z"/>
        <path class="cls-1" d="M469.9,216.82c24.81,0,37.22,10.59,37.22,31.77,0,6.86-1.54,13.29-4.62,19.29-3.08,6-7.24,10.67-12.48,14-6.96,4.44-17.6,6.66-31.93,6.66h-21.18l-7.57,36.01h-28.14l22.85-107.73h45.85ZM441.61,266.6h18.91c12.81,0,19.22-5.09,19.22-15.28,0-4.74-1.46-7.87-4.39-9.38-2.92-1.51-7.06-2.27-12.41-2.27h-15.74l-5.6,26.93Z"/>
        <path class="cls-1" d="M523.61,324.55h-25.72l22.85-107.73h25.72l-22.85,107.73Z"/>
        <path class="cls-1" d="M553.5,254.12c3.98-3.98,8.42-6.61,13.31-7.87,4.89-1.26,10.87-1.89,17.93-1.89,11.2,0,19.77,1.71,25.72,5.14s8.93,8.37,8.93,14.83c0,2.82-.66,7.46-1.97,13.92l-5.75,26.78c-1.31,6.15-1.97,10.54-1.97,13.16,0,2.12.3,4.24.91,6.36h-25.72l-.3-2.72c0-.5.05-1.24.15-2.19.1-.96.15-1.84.15-2.65-5.85,6.76-14.12,10.14-24.81,10.14-7.77,0-13.89-1.97-18.38-5.9-4.49-3.93-6.73-9.33-6.73-16.19,0-4.14.81-7.77,2.42-10.89,1.61-3.13,3.66-5.62,6.13-7.49,2.47-1.87,5.57-3.43,9.3-4.69,3.73-1.26,7.21-2.14,10.44-2.65,3.23-.5,6.91-.91,11.04-1.21,8.37-.6,13.52-1.31,15.43-2.12,3.43-1.31,5.14-3.98,5.14-8.02,0-4.94-3.78-7.41-11.35-7.41-3.83,0-6.81.71-8.93,2.12s-3.78,3.93-4.99,7.56h-24.06c1.31-6.76,3.96-12.13,7.94-16.11ZM578.23,291.72c-6.86.71-11.35,1.76-13.47,3.18-2.62,1.71-3.93,4.29-3.93,7.72,0,2.72.91,4.84,2.72,6.36,1.82,1.51,4.34,2.27,7.57,2.27,9.18,0,14.98-4.74,17.4-14.22l2.27-8.78c-2.22,1.61-6.41,2.77-12.56,3.48Z"/>
        <path class="cls-1" d="M655.55,257.07c7.26-8.47,16.19-12.71,26.78-12.71,7.06,0,12.73,1.87,17.02,5.6,4.29,3.73,6.43,8.67,6.43,14.83,0,3.73-.5,7.97-1.51,12.71l-9.99,47.06h-26.02l9.68-45.09c.4-1.71.6-3.68.6-5.9,0-2.93-.83-5.17-2.5-6.73-1.67-1.56-4.06-2.34-7.19-2.34-4.44,0-8.17,1.54-11.2,4.61-3.03,3.08-5.14,7.49-6.36,13.24l-8.93,42.21h-25.72l16.64-78.07h24.66l-2.42,10.59Z"/>
        <path class="cls-1" d="M772.28,320.69c-7.31,4.19-15.91,6.28-25.8,6.28-11.6,0-20.73-3.05-27.39-9.15s-9.99-14.9-9.99-26.4c0-13.72,4.26-24.97,12.79-33.74,8.52-8.78,19.39-13.16,32.61-13.16,11.6,0,20.68,3.1,27.24,9.31,6.56,6.2,9.83,14.75,9.83,25.65,0,3.63-.4,7.72-1.21,12.26h-56.89c-.1.81-.15,1.71-.15,2.72,0,4.94,1.29,8.73,3.86,11.35,2.57,2.62,6.23,3.93,10.97,3.93,6.56,0,11.2-2.82,13.92-8.47h25.12c-2.62,8.78-7.59,15.26-14.9,19.44ZM767.51,277.35v-1.82c0-4.34-1.21-7.72-3.63-10.14s-5.7-3.63-9.83-3.63c-4.44,0-8.27,1.36-11.5,4.08s-5.5,6.56-6.81,11.5h31.77Z"/>
        <path class="cls-1" d="M848.91,262.97h-15.74l-6.66,29.96c-.91,3.83-1.36,6.51-1.36,8.02,0,2.02.58,3.43,1.74,4.24s3.15,1.21,5.98,1.21c.2,0,3.03-.15,8.47-.45l-4.08,18.61c-4.44.71-9.58,1.06-15.43,1.06-15.84,0-23.75-5.55-23.75-16.64,0-2.42.81-7.31,2.42-14.68l6.81-31.32h-13.16l3.78-16.49h13.01l5.45-23.75h25.57l-5.14,23.75h15.89l-3.78,16.49Z"/>
      </g>
    </g>
  </g>
</svg>