<?xml version="1.0" encoding="UTF-8"?>
<svg id="Layer_2" data-name="Layer 2" xmlns="http://www.w3.org/2000/svg" viewBox="0 0 405.84 71.62">
  <defs>
    <style>
      .cls-1 {
        fill: #c2f32c;
      }

      .cls-1, .cls-2, .cls-3 {
        stroke-width: 0px;
      }

      .cls-2 {
        fill: #b7ff1a;
      }

      .cls-3 {
        fill: #f2f8f5;
      }
    </style>
  </defs>
  <g id="Layer_1-2" data-name="Layer 1">
    <g>
      <g>
        <g>
          <path class="cls-1" d="M28.23,15.67l-7.52-9.21,3.68-2.67,6.39,10.03c-.44.26-.88.54-1.31.85-.44.32-.85.65-1.24,1Z"/>
          <path class="cls-1" d="M29.83,6.36l4.23-1.67,2.37,7.24c-1.22.15-2.43.45-3.6.9l-3-6.48Z"/>
          <path class="cls-1" d="M39.04,11.84l1.2-11.84,4.49.72-2.58,11.62c-1.02-.27-2.06-.44-3.11-.49Z"/>
          <path class="cls-1" d="M46.75,6.38l4.17,1.81-3.45,6.8c-.99-.77-2.06-1.4-3.18-1.9l2.46-6.71Z"/>
          <path class="cls-1" d="M23.31,26.02l-11.84-1.2.72-4.49,11.62,2.58c-.27,1.02-.44,2.06-.49,3.11Z"/>
          <path class="cls-1" d="M17.85,18.31l1.81-4.17,6.8,3.45c-.77.99-1.4,2.06-1.9,3.18l-6.71-2.46Z"/>
          <path class="cls-1" d="M30.79,17.53c-4.15,3.01-6.21,7.83-5.87,12.6-1.32-5.29.59-11.08,5.27-14.48,6.15-4.46,14.76-3.09,19.22,3.06.32.44.6.89.86,1.35-4.76-5.83-13.31-7.01-19.48-2.53Z"/>
        </g>
        <path class="cls-3" d="M66.43,19.74c.03.44.05.88.06,1.33.02.56.02,1.14.02,1.7,4.63,6.95,6.38,15.82,4.03,24.47-4.44,16.49-22.14,26.11-38.3,20.56-3.42-1.11-6.51-2.84-9.2-5.03-1.09.32-2.18.61-3.26.88-.27.07-.53.13-.8.19.38.32.77.64,1.17.94,18.34,14.25,45.43,5.16,51.54-17.23,2.74-10.2.34-20.21-5.25-27.8Z"/>
        <path class="cls-3" d="M63.57,28c.23-2.4.28-4.69.22-6.85-1.01,2.21-2.31,4.52-4,6.8-1.73,2.34-3.55,4.22-5.24,5.72.69.47,1.51.96,2.44,1.42,1.16.58,2.25.98,3.2,1.27-6.09,5.3-14.95,11.87-26.72,17.36C20.61,59.7,8.85,62.26.21,63.41c5.42-.06,11.87-.65,18.92-2.4,2.24-.55,4.39-1.19,6.46-1.89,0,0,.02.02.03.03,1.72,1.73,4.05,2.7,6.49,2.76,5.05.11,13.03-.71,19.83-6.09,9.75-7.72,10.89-19.94,11.64-27.83Z"/>
        <path class="cls-2" d="M60.18,36.36c-.95-.29-2.04-.69-3.2-1.27-.94-.46-1.75-.95-2.44-1.42,1.69-1.5,3.51-3.39,5.24-5.72,1.69-2.28,2.99-4.59,4-6.8-.18-6.16-1.34-11.25-2.4-14.77-.5,5.4-2.4,15.61-10.09,23.79-2.29,2.43-4.67,4.23-6.84,5.57,2.54,1.02,5.08,2.04,7.63,3.06-5.52,4.82-13.42,10.7-23.83,15.69-10.97,5.26-20.96,7.72-28.26,8.93.07,0,.14,0,.21,0,8.64-1.15,20.4-3.71,33.25-9.7,11.77-5.48,20.63-12.06,26.72-17.36Z"/>
        <path class="cls-3" d="M18.32,46.71c.5,2.04,1.26,3.9,2.16,5.59,2.65-1.28,5.37-2.76,8.15-4.49,3.88-2.42,7.26-4.95,10.17-7.41-2.67-1.77-5.34-3.54-8-5.31,4.82-1.68,15.82-6.32,24.11-17.93.34-.48.67-.96.98-1.43-.33.31-.65.59-.97.84-6.36,5.04-13.97,2.76-25.8,8.91-1.26.66-2.65,1.45-4.17,2.72-1.04.87-6.75,5.65-7.22,13.11-.15,2.35.28,4.12.59,5.4Z"/>
      </g>
      <g>
        <path class="cls-3" d="M114.68,21.51c9.65,0,14.48,4.12,14.48,12.36,0,2.67-.6,5.17-1.79,7.5-1.2,2.33-2.81,4.15-4.86,5.44-2.71,1.73-6.85,2.59-12.42,2.59h-8.24l-2.94,14.01h-10.95l8.89-41.9h17.83ZM103.67,40.87h7.36c4.98,0,7.47-1.98,7.47-5.94,0-1.84-.57-3.06-1.71-3.65s-2.75-.88-4.83-.88h-6.12l-2.18,10.48Z"/>
        <path class="cls-3" d="M155.17,63.41h-9.59l.88-4.24c-2.35,3.41-5.71,5.12-10.06,5.12-2.75,0-4.96-.75-6.65-2.24-1.69-1.49-2.53-3.45-2.53-5.89,0-1.29.2-2.88.59-4.77l3.88-18.36h10.06l-3.53,16.77c-.31,1.65-.47,2.8-.47,3.47,0,.98.34,1.75,1.03,2.3.69.55,1.6.82,2.74.82,1.65,0,3.04-.61,4.18-1.82,1.14-1.22,1.96-2.96,2.47-5.24l3.47-16.3h9.95l-6.42,30.37Z"/>
        <path class="cls-3" d="M185.54,41.58c-1.45-.39-2.73-.59-3.83-.59-2.79,0-4.88.77-6.3,2.32-1.41,1.55-2.43,3.76-3.06,6.62l-2.88,13.48h-9.95l6.47-30.37h9.48l-1.18,5.18c1.41-2,2.87-3.5,4.38-4.5,1.51-1,3.38-1.5,5.62-1.5.94,0,1.98.12,3.12.35l-1.88,9Z"/>
        <path class="cls-3" d="M208,61.91c-2.84,1.63-6.19,2.44-10.04,2.44-4.51,0-8.06-1.19-10.65-3.56-2.59-2.37-3.88-5.8-3.88-10.27,0-5.34,1.66-9.71,4.97-13.12,3.32-3.41,7.54-5.12,12.68-5.12,4.51,0,8.04,1.21,10.59,3.62,2.55,2.41,3.83,5.74,3.83,9.98,0,1.41-.16,3-.47,4.77h-22.13c-.04.31-.06.67-.06,1.06,0,1.92.5,3.39,1.5,4.41,1,1.02,2.42,1.53,4.27,1.53,2.55,0,4.36-1.1,5.42-3.3h9.77c-1.02,3.41-2.95,5.93-5.8,7.56ZM206.14,45.05v-.71c0-1.69-.47-3-1.41-3.94s-2.22-1.41-3.83-1.41c-1.73,0-3.22.53-4.47,1.59-1.25,1.06-2.14,2.55-2.65,4.47h12.36Z"/>
        <path class="cls-3" d="M256.93,21.51c9.65,0,14.48,4.12,14.48,12.36,0,2.67-.6,5.17-1.79,7.5-1.2,2.33-2.81,4.15-4.86,5.44-2.71,1.73-6.85,2.59-12.42,2.59h-8.24l-2.94,14.01h-10.95l8.89-41.9h17.83ZM245.93,40.87h7.36c4.98,0,7.47-1.98,7.47-5.94,0-1.84-.57-3.06-1.71-3.65s-2.75-.88-4.83-.88h-6.12l-2.18,10.48Z"/>
        <path class="cls-3" d="M277.83,63.41h-10l8.89-41.9h10l-8.89,41.9Z"/>
        <path class="cls-3" d="M289.45,36.02c1.55-1.55,3.28-2.57,5.18-3.06,1.9-.49,4.23-.74,6.97-.74,4.36,0,7.69.67,10,2s3.47,3.26,3.47,5.77c0,1.1-.25,2.9-.77,5.42l-2.24,10.42c-.51,2.39-.76,4.1-.76,5.12,0,.82.12,1.65.35,2.47h-10l-.12-1.06c0-.2.02-.48.06-.85.04-.37.06-.72.06-1.03-2.28,2.63-5.49,3.94-9.65,3.94-3.02,0-5.4-.76-7.15-2.29s-2.62-3.63-2.62-6.3c0-1.61.31-3.02.94-4.24.63-1.22,1.42-2.19,2.38-2.91.96-.73,2.17-1.33,3.62-1.82,1.45-.49,2.8-.83,4.06-1.03s2.69-.35,4.3-.47c3.26-.24,5.26-.51,6-.82,1.33-.51,2-1.55,2-3.12,0-1.92-1.47-2.88-4.41-2.88-1.49,0-2.65.27-3.47.82-.82.55-1.47,1.53-1.94,2.94h-9.36c.51-2.63,1.54-4.72,3.09-6.27ZM299.07,50.64c-2.67.27-4.41.69-5.24,1.24-1.02.67-1.53,1.67-1.53,3,0,1.06.35,1.88,1.06,2.47.71.59,1.69.88,2.94.88,3.57,0,5.83-1.84,6.77-5.53l.88-3.41c-.86.63-2.49,1.08-4.89,1.35Z"/>
        <path class="cls-3" d="M329.15,37.16c2.83-3.29,6.3-4.94,10.42-4.94,2.75,0,4.95.73,6.62,2.18,1.67,1.45,2.5,3.37,2.5,5.77,0,1.45-.2,3.1-.59,4.94l-3.88,18.3h-10.12l3.77-17.54c.16-.67.24-1.43.24-2.3,0-1.14-.32-2.01-.97-2.62-.65-.61-1.58-.91-2.8-.91-1.73,0-3.18.6-4.35,1.79-1.18,1.2-2,2.91-2.47,5.15l-3.47,16.42h-10l6.47-30.37h9.59l-.94,4.12Z"/>
        <path class="cls-3" d="M374.56,61.91c-2.84,1.63-6.19,2.44-10.04,2.44-4.51,0-8.06-1.19-10.65-3.56-2.59-2.37-3.88-5.8-3.88-10.27,0-5.34,1.66-9.71,4.97-13.12,3.32-3.41,7.54-5.12,12.68-5.12,4.51,0,8.04,1.21,10.59,3.62,2.55,2.41,3.83,5.74,3.83,9.98,0,1.41-.16,3-.47,4.77h-22.13c-.04.31-.06.67-.06,1.06,0,1.92.5,3.39,1.5,4.41,1,1.02,2.42,1.53,4.27,1.53,2.55,0,4.36-1.1,5.42-3.3h9.77c-1.02,3.41-2.95,5.93-5.8,7.56ZM372.7,45.05v-.71c0-1.69-.47-3-1.41-3.94s-2.22-1.41-3.83-1.41c-1.73,0-3.22.53-4.47,1.59-1.25,1.06-2.14,2.55-2.65,4.47h12.36Z"/>
        <path class="cls-3" d="M404.37,39.46h-6.12l-2.59,11.65c-.35,1.49-.53,2.53-.53,3.12,0,.78.23,1.33.68,1.65.45.31,1.23.47,2.32.47.08,0,1.18-.06,3.3-.18l-1.59,7.24c-1.73.27-3.73.41-6,.41-6.16,0-9.24-2.16-9.24-6.47,0-.94.31-2.84.94-5.71l2.65-12.18h-5.12l1.47-6.42h5.06l2.12-9.24h9.95l-2,9.24h6.18l-1.47,6.42Z"/>
      </g>
    </g>
  </g>
</svg>