<?xml version="1.0" encoding="UTF-8"?>
<svg id="Layer_2" data-name="Layer 2" xmlns="http://www.w3.org/2000/svg" viewBox="0 0 646.31 301.16">
  <defs>
    <style>
      .cls-1 {
        fill: #c2f32c;
      }

      .cls-1, .cls-2, .cls-3 {
        stroke-width: 0px;
      }

      .cls-2 {
        fill: #b7ff1a;
      }

      .cls-3 {
        fill: #f2f8f5;
      }
    </style>
  </defs>
  <g id="Layer_1-2" data-name="Layer 1">
    <g>
      <g>
        <g>
          <path class="cls-1" d="M107.29,59.54l-28.58-35.01,13.98-10.14,24.27,38.12c-1.69.98-3.35,2.05-4.96,3.22-1.65,1.2-3.22,2.47-4.7,3.81Z"/>
          <path class="cls-1" d="M113.37,24.16l16.06-6.35,9,27.53c-4.63.56-9.22,1.7-13.67,3.43l-11.4-24.61Z"/>
          <path class="cls-1" d="M148.37,45L152.92,0l17.06,2.72-9.8,44.15c-3.86-1.03-7.82-1.66-11.8-1.87Z"/>
          <path class="cls-1" d="M177.69,24.25l15.85,6.87-13.1,25.83c-3.76-2.93-7.82-5.34-12.1-7.21l9.35-25.49Z"/>
          <path class="cls-1" d="M88.58,98.9l-45-4.55,2.72-17.06,44.15,9.8c-1.03,3.86-1.66,7.82-1.87,11.8Z"/>
          <path class="cls-1" d="M67.83,69.57l6.87-15.85,25.83,13.1c-2.93,3.76-5.34,7.82-7.21,12.1l-25.49-9.35Z"/>
          <path class="cls-1" d="M117.01,66.64c-15.78,11.44-23.6,29.77-22.33,47.88-5.02-20.1,2.24-42.12,20.04-55.03,23.39-16.96,56.09-11.74,73.04,11.65,1.2,1.66,2.29,3.37,3.27,5.11-18.09-22.18-50.57-26.63-74.03-9.62Z"/>
        </g>
        <path class="cls-3" d="M252.48,75.02c.1,1.67.18,3.36.22,5.04.06,2.14.09,4.32.09,6.46,17.58,26.42,24.26,60.11,15.32,93-16.89,62.68-84.16,99.24-145.55,78.13-12.98-4.2-24.76-10.79-34.98-19.12-4.13,1.2-8.27,2.32-12.41,3.35-1.01.25-2.03.5-3.05.73,1.45,1.23,2.94,2.42,4.45,3.58,69.7,54.15,172.67,19.62,195.89-65.5,10.41-38.77,1.29-76.8-19.97-105.68Z"/>
        <path class="cls-3" d="M241.59,106.41c.86-9.13,1.07-17.83.83-26.04-3.83,8.41-8.78,17.17-15.21,25.84-6.58,8.88-13.5,16.04-19.92,21.75,2.63,1.78,5.73,3.64,9.28,5.4,4.42,2.19,8.56,3.72,12.16,4.82-23.16,20.13-56.83,45.12-101.57,65.97-48.83,22.75-93.53,32.5-126.37,36.87,20.62-.22,45.1-2.48,71.9-9.11,8.51-2.11,16.69-4.52,24.55-7.16.04.04.07.08.11.11,6.52,6.57,15.39,10.27,24.65,10.47,19.19.42,49.52-2.7,75.35-23.16,37.04-29.34,41.41-75.78,44.22-105.76Z"/>
        <path class="cls-2" d="M228.73,138.18c-3.6-1.09-7.74-2.63-12.16-4.82-3.56-1.76-6.65-3.62-9.28-5.4,6.42-5.71,13.34-12.87,19.92-21.75,6.43-8.67,11.38-17.43,15.21-25.84-.69-23.4-5.11-42.75-9.11-56.15-1.91,20.53-9.1,59.34-38.35,90.41-8.7,9.24-17.74,16.08-25.99,21.17,9.66,3.88,19.32,7.76,28.98,11.63-20.99,18.33-51.01,40.68-90.56,59.63-41.71,19.99-79.67,29.32-107.39,33.96.26,0,.53,0,.8,0,32.84-4.37,77.54-14.12,126.37-36.87,44.73-20.85,78.41-45.84,101.57-65.97Z"/>
        <path class="cls-3" d="M69.63,177.54c1.92,7.76,4.79,14.84,8.19,21.23,10.06-4.85,20.43-10.48,30.96-17.06,14.73-9.19,27.58-18.82,38.64-28.15-10.14-6.72-20.28-13.44-30.42-20.17,18.33-6.4,60.13-24.01,91.64-68.13,1.3-1.82,2.54-3.64,3.74-5.45-1.25,1.18-2.48,2.23-3.67,3.18-24.16,19.16-53.1,10.49-98.07,33.85-4.81,2.5-10.07,5.5-15.84,10.33-3.95,3.31-25.64,21.47-27.43,49.82-.56,8.93,1.05,15.67,2.25,20.54Z"/>
      </g>
      <g>
        <path class="cls-3" d="M356.17,54.34c18.81,0,28.21,8.03,28.21,24.08,0,5.2-1.17,10.07-3.5,14.62s-5.49,8.09-9.46,10.61c-5.28,3.36-13.34,5.05-24.2,5.05h-16.06l-5.73,27.29h-21.33l17.32-81.66h34.75ZM334.72,92.07h14.34c9.71,0,14.56-3.86,14.56-11.58,0-3.59-1.11-5.96-3.33-7.11-2.22-1.15-5.35-1.72-9.4-1.72h-11.93l-4.24,20.41Z"/>
        <path class="cls-3" d="M435.07,136h-18.69l1.72-8.26c-4.59,6.65-11.12,9.98-19.61,9.98-5.35,0-9.67-1.45-12.96-4.36-3.29-2.91-4.93-6.73-4.93-11.47,0-2.52.38-5.62,1.15-9.29l7.57-35.78h19.61l-6.88,32.68c-.61,3.21-.92,5.47-.92,6.77,0,1.91.67,3.4,2.01,4.47s3.12,1.61,5.33,1.61c3.21,0,5.92-1.19,8.14-3.56,2.22-2.37,3.82-5.77,4.82-10.21l6.77-31.77h19.38l-12.5,59.18Z"/>
        <path class="cls-3" d="M494.24,93.45c-2.83-.76-5.31-1.15-7.45-1.15-5.43,0-9.52,1.51-12.27,4.53-2.75,3.02-4.74,7.32-5.96,12.9l-5.62,26.26h-19.38l12.62-59.18h18.46l-2.29,10.09c2.75-3.9,5.6-6.82,8.54-8.77,2.94-1.95,6.59-2.93,10.95-2.93,1.83,0,3.86.23,6.08.69l-3.67,17.55Z"/>
        <path class="cls-3" d="M537.99,133.07c-5.54,3.17-12.06,4.76-19.55,4.76-8.79,0-15.71-2.31-20.76-6.94-5.05-4.62-7.57-11.3-7.57-20.01,0-10.4,3.23-18.92,9.69-25.58,6.46-6.65,14.7-9.98,24.71-9.98,8.79,0,15.67,2.35,20.64,7.05,4.97,4.7,7.45,11.18,7.45,19.44,0,2.75-.31,5.85-.92,9.29h-43.12c-.08.61-.11,1.3-.11,2.06,0,3.75.97,6.61,2.92,8.6,1.95,1.99,4.72,2.98,8.31,2.98,4.97,0,8.49-2.14,10.55-6.42h19.04c-1.99,6.65-5.75,11.56-11.3,14.74ZM534.38,100.22v-1.38c0-3.29-.92-5.85-2.75-7.68-1.83-1.83-4.32-2.75-7.45-2.75-3.36,0-6.27,1.03-8.72,3.1-2.45,2.06-4.17,4.97-5.16,8.72h24.08Z"/>
        <path class="cls-3" d="M356.17,164.34c18.81,0,28.21,8.03,28.21,24.08,0,5.2-1.17,10.07-3.5,14.62s-5.49,8.09-9.46,10.61c-5.28,3.36-13.34,5.04-24.2,5.04h-16.06l-5.73,27.29h-21.33l17.32-81.66h34.75ZM334.72,202.07h14.34c9.71,0,14.56-3.86,14.56-11.58,0-3.59-1.11-5.96-3.33-7.11-2.22-1.15-5.35-1.72-9.4-1.72h-11.93l-4.24,20.41Z"/>
        <path class="cls-3" d="M396.88,246h-19.5l17.32-81.66h19.5l-17.32,81.66Z"/>
        <path class="cls-3" d="M419.53,192.61c3.02-3.02,6.38-5.01,10.09-5.96,3.71-.96,8.24-1.43,13.59-1.43,8.49,0,14.99,1.3,19.5,3.9s6.77,6.35,6.77,11.24c0,2.14-.5,5.66-1.49,10.55l-4.36,20.3c-.99,4.66-1.49,7.99-1.49,9.98,0,1.61.23,3.21.69,4.82h-19.5l-.23-2.06c0-.38.04-.94.12-1.66.08-.73.11-1.4.11-2.01-4.43,5.12-10.7,7.68-18.81,7.68-5.89,0-10.53-1.49-13.93-4.47-3.4-2.98-5.1-7.07-5.1-12.27,0-3.13.61-5.89,1.83-8.26,1.22-2.37,2.77-4.26,4.64-5.68s4.22-2.6,7.05-3.55c2.83-.96,5.47-1.62,7.91-2.01,2.45-.38,5.24-.69,8.37-.92,6.35-.46,10.25-.99,11.7-1.61,2.6-.99,3.9-3.02,3.9-6.08,0-3.75-2.87-5.62-8.6-5.62-2.91,0-5.16.54-6.77,1.61s-2.87,2.98-3.78,5.73h-18.24c.99-5.12,3-9.19,6.02-12.21ZM438.28,221.11c-5.2.54-8.6,1.34-10.21,2.41-1.99,1.3-2.98,3.25-2.98,5.85,0,2.06.69,3.67,2.06,4.82,1.38,1.15,3.29,1.72,5.73,1.72,6.96,0,11.35-3.59,13.19-10.78l1.72-6.65c-1.68,1.22-4.85,2.1-9.52,2.64Z"/>
        <path class="cls-3" d="M496.88,194.85c5.5-6.42,12.27-9.63,20.3-9.63,5.35,0,9.65,1.41,12.9,4.24,3.25,2.83,4.87,6.57,4.87,11.24,0,2.83-.38,6.04-1.15,9.63l-7.57,35.67h-19.73l7.34-34.18c.31-1.3.46-2.79.46-4.47,0-2.22-.63-3.92-1.89-5.1-1.26-1.19-3.08-1.78-5.45-1.78-3.36,0-6.19,1.17-8.49,3.5s-3.9,5.68-4.82,10.04l-6.77,32h-19.5l12.62-59.18h18.69l-1.83,8.03Z"/>
        <path class="cls-3" d="M585.36,243.07c-5.54,3.17-12.06,4.76-19.55,4.76-8.79,0-15.71-2.31-20.76-6.94-5.05-4.62-7.57-11.3-7.57-20.01,0-10.4,3.23-18.92,9.69-25.57,6.46-6.65,14.7-9.98,24.71-9.98,8.79,0,15.67,2.35,20.64,7.05,4.97,4.7,7.45,11.18,7.45,19.44,0,2.75-.31,5.85-.92,9.29h-43.12c-.08.61-.11,1.3-.11,2.06,0,3.75.97,6.61,2.92,8.6,1.95,1.99,4.72,2.98,8.31,2.98,4.97,0,8.49-2.14,10.55-6.42h19.04c-1.99,6.65-5.75,11.56-11.3,14.74ZM581.74,210.22v-1.38c0-3.29-.92-5.85-2.75-7.68-1.83-1.83-4.32-2.75-7.45-2.75-3.36,0-6.27,1.03-8.72,3.1-2.45,2.06-4.17,4.97-5.16,8.72h24.08Z"/>
        <path class="cls-3" d="M643.44,199.32h-11.93l-5.05,22.71c-.69,2.91-1.03,4.93-1.03,6.08,0,1.53.44,2.6,1.32,3.21.88.61,2.39.92,4.53.92.15,0,2.29-.12,6.42-.34l-3.1,14.11c-3.36.54-7.26.8-11.7.8-12,0-18-4.21-18-12.62,0-1.83.61-5.54,1.83-11.12l5.16-23.74h-9.98l2.87-12.5h9.86l4.13-18h19.38l-3.9,18h12.04l-2.87,12.5Z"/>
      </g>
    </g>
  </g>
</svg>