<svg width="180" height="115" viewBox="0 0 180 115" fill="none" xmlns="http://www.w3.org/2000/svg">
<path d="M68.3998 23.7999C68.8998 25.7999 67.6998 27.7999 65.6998 28.2999C63.6998 28.7999 61.6998 27.5999 61.1998 25.5999C60.6998 23.5999 61.8998 21.5999 63.8998 21.0999C65.8998 20.5999 67.8998 21.7999 68.3998 23.7999Z" fill="black"/>
<path d="M77.9997 18.6999C78.5997 21.0999 77.0997 23.5999 74.6997 24.1999C72.2997 24.7999 69.7997 23.2999 69.1997 20.8999C68.5997 18.4999 70.0997 15.9999 72.4997 15.3999C74.8997 14.7999 77.3997 16.2999 77.9997 18.6999Z" fill="black"/>
<path d="M91.4998 20.3C92.4998 17.3 90.7998 14 87.7998 13C84.7998 12 81.4998 13.7 80.4998 16.7C79.4998 19.7 81.1998 23 84.1998 24C87.2998 24.9 90.4998 23.3 91.4998 20.3Z" fill="black"/>
<path d="M44.9 91.2C44.4 89.2 45.6 87.2 47.6 86.7C49.6 86.2 51.6 87.4 52.1 89.4C52.6 91.4 51.4 93.4 49.4 93.9C47.4 94.4 45.4 93.1 44.9 91.2Z" fill="black"/>
<path d="M35.2998 96.3C34.6998 93.9 36.1998 91.4 38.5998 90.8C40.9998 90.2 43.4998 91.7 44.0998 94.1C44.6998 96.5 43.1998 99 40.7998 99.6C38.3998 100.2 35.9998 98.7 35.2998 96.3Z" fill="black"/>
<path d="M31.4001 100.6C33.7001 98.2998 33.7001 94.6998 31.4001 92.3998C29.1001 90.0998 25.5001 90.0998 23.2001 92.3998C20.9001 94.6998 20.9001 98.2998 23.2001 100.6C25.5001 102.9 29.1001 102.9 31.4001 100.6Z" fill="black"/>
<path d="M22.9999 45.7C24.9999 45.2 26.9999 46.4 27.4999 48.4C27.9999 50.4 26.7999 52.4 24.7999 52.9C22.7999 53.4 20.7999 52.2 20.2999 50.2C19.7999 48.3 20.9999 46.2 22.9999 45.7Z" fill="black"/>
<path d="M17.9001 36.1999C20.3001 35.5999 22.8001 37.0999 23.4001 39.4999C24.0001 41.8999 22.5001 44.3999 20.1001 44.9999C17.7001 45.5999 15.2001 44.0999 14.6001 41.6999C14.0001 39.1999 15.4001 36.7999 17.9001 36.1999Z" fill="black"/>
<path d="M23.2999 29.2999C23.9999 26.1999 21.9999 23.0999 18.7999 22.4999C15.6999 21.7999 12.5999 23.7999 11.9999 26.9999C11.2999 30.0999 13.2999 33.1999 16.4999 33.7999C19.6999 34.3999 22.5999 32.4999 23.2999 29.2999Z" fill="black"/>
<path d="M25.2001 74.2998C26.2001 72.4998 28.4001 71.7998 30.2001 72.7998C32.0001 73.7998 32.7001 75.9998 31.7001 77.7998C30.7001 79.5998 28.5001 80.2998 26.7001 79.2998C24.9001 78.3998 24.3001 76.0998 25.2001 74.2998Z" fill="black"/>
<path d="M14.7 71.5998C15.9 69.3998 18.6 68.5998 20.8 69.7998C23 70.9998 23.8 73.6998 22.6 75.8998C21.4 78.0998 18.7 78.8998 16.5 77.6998C14.3 76.4998 13.5 73.7998 14.7 71.5998Z" fill="black"/>
<path d="M12.6999 70.3999C14.9999 68.0999 14.9999 64.4999 12.6999 62.1999C10.3999 59.8999 6.7999 59.8999 4.4999 62.1999C2.1999 64.4999 2.1999 68.0999 4.4999 70.3999C6.7999 72.6999 10.4999 72.6999 12.6999 70.3999Z" fill="black"/>
<path d="M73.4998 88.8999C71.6998 87.8999 70.9998 85.6999 71.9998 83.8999C72.9998 82.0999 75.1998 81.3999 76.9998 82.3999C78.7998 83.3999 79.4998 85.5999 78.4998 87.3999C77.4998 89.2999 75.2998 89.8999 73.4998 88.8999Z" fill="black"/>
<path d="M70.7998 99.4999C68.5998 98.2999 67.7998 95.5999 68.9998 93.3999C70.1998 91.1999 72.8998 90.3999 75.0998 91.5999C77.2998 92.7999 78.0998 95.4999 76.8998 97.6999C75.6998 99.8999 72.9998 100.7 70.7998 99.4999Z" fill="black"/>
<path d="M70.6 108.2C72.1 105.4 71 101.9 68.1 100.4C65.3 98.8999 61.8 99.9999 60.3 102.9C58.8 105.7 59.9 109.2 62.8 110.7C65.7 112.1 69.2 111 70.6 108.2Z" fill="black"/>
<path d="M39.8997 26.0999C41.6997 27.0999 42.3997 29.2999 41.3997 31.0999C40.3997 32.8999 38.1997 33.5999 36.3997 32.5999C34.5997 31.5999 33.8997 29.3999 34.8997 27.5999C35.7997 25.6999 38.0997 25.0999 39.8997 26.0999Z" fill="black"/>
<path d="M42.5998 15.5C44.7998 16.7 45.5998 19.4 44.3998 21.6C43.1998 23.8 40.4998 24.6 38.2998 23.4C36.0998 22.2 35.2998 19.5 36.4998 17.3C37.5998 15.1 40.3998 14.3 42.5998 15.5Z" fill="black"/>
<path d="M49.6001 14.8999C52.6001 13.8999 54.3001 10.5999 53.3001 7.59993C52.3001 4.59993 49.0001 2.89993 46.0001 3.89993C43.0001 4.89993 41.3001 8.19993 42.3001 11.1999C43.3001 14.2999 46.6001 15.8999 49.6001 14.8999Z" fill="black"/>
<path d="M41.6001 48.9999H60.7001V42.5999H41.6001V48.9999Z" fill="black"/>
<path d="M47.9001 60.8H58.8001V54.5H41.6001V72.5H60.8001V66H47.9001V60.8Z" fill="black"/>
<path d="M79 60.1L69.8 42.5H63.5V72.4H69.7V55.1L78.9 72.4H85.2V42.6H79V60.1Z" fill="black"/>
<path d="M89.2998 49L108.4 48.9V42.5H89.2998V49Z" fill="black"/>
<path d="M95.5998 60.8H106.5V54.5H89.2998V72.5H108.4V66H95.5998V60.8Z" fill="black"/>
<path d="M127.6 59.8C128.9 59 129.9 57.9 130.6 56.5C131.3 55.1 131.6 53.5 131.6 51.7C131.6 49.9 131.3 48.3 130.6 47C129.9 45.6 128.9 44.5 127.6 43.7C126.3 42.9 124.9 42.5 123.2 42.5H111.3V49L123.1 48.9C123.5 48.9 123.9 49 124.1 49.2C124.4 49.4 124.6 49.7 124.8 50.1C125 50.5 125.1 51.1 125.1 51.7C125.1 52.3 125 52.9 124.8 53.3C124.6 53.7 124.4 54 124.1 54.2C123.8 54.4 123.5 54.5 123.1 54.5L111.3 54.4V72.4H117.6V60.9H120.2L125.9 72.4H133.3L127 60.1C127.2 60 127.4 59.9 127.6 59.8Z" fill="black"/>
<path d="M143.8 61.5H148.4C148.4 62.5 148.2 63.3 147.9 64C147.6 64.7 147.1 65.2 146.6 65.5C146 65.9 145.3 66 144.5 66C143.7 66 143 65.8 142.4 65.5C141.8 65.2 141.4 64.6999 141 64.0999C140.7 63.4999 140.5 62.6999 140.5 61.7999V53.5999C140.5 52.5999 140.7 51.7 141 51C141.3 50.3 141.8 49.8 142.4 49.4C143 49 143.6 48.7999 144.4 48.7999C144.9 48.7999 145.4 48.8999 145.9 49.0999C146.4 49.2999 146.8 49.5999 147.2 50.0999C147.6 50.4999 147.8 51.1 148 51.7L148.2 52.4H154.8L154.6 51.2C154.3 49.4 153.6 47.8 152.7 46.5C151.7 45.1 150.5 43.9999 149.1 43.2999C147.7 42.4999 146.1 42.2 144.4 42.2C142.4 42.2 140.5 42.6999 139 43.5999C137.4 44.5999 136.2 45.9 135.4 47.7C134.6 49.4 134.1 51.3999 134.1 53.5999V61.7999C134.1 63.8999 134.5 65.8 135.4 67.4C136.3 69 137.5 70.2999 139.1 71.1999C140.7 72.0999 142.5 72.5 144.5 72.5C146.5 72.5 148.4 71.9999 149.9 71.0999C151.5 70.0999 152.7 68.8 153.5 67C154.3 65.3 154.8 63.2999 154.8 61.0999V54.9H143.7V61.5H143.8Z" fill="black"/>
<path d="M170.3 42.6L165.6 53.4L160.9 42.6H154.1L162.5 60.7V72.5H168.8V60.6L177.2 42.5H170.3V42.6Z" fill="black"/>
</svg>
