<svg width="180" height="112" viewBox="0 0 180 112" fill="none" xmlns="http://www.w3.org/2000/svg">
<path d="M33.5 52.7H12.9V35H5V77H12.9V60H33.5V77H41.3V35H33.5V52.7Z" fill="black"/>
<path d="M51.2998 76.9H82.6998V69.1H59.0998V59.6H81.7998V52.2H59.0998V42.6H82.5998V35H51.2998V76.9Z" fill="black"/>
<path d="M126.1 48.8999C126.1 41.6999 120.9 35.0999 111 34.9999C104.4 34.9999 97.7001 34.8999 91.1001 34.8999V76.8999H99.0001V62.8999H107L119.2 76.8999H128.2V76.3999L115.5 61.9999C123.5 60.3999 126.1 54.5999 126.1 48.8999ZM99.0001 55.7999V42.2999H111C116 42.2999 118.2 45.6999 118.2 48.9999C118.2 52.3999 116 55.6999 111 55.6999H99.0001V55.7999Z" fill="black"/>
<path d="M137 60.2999C136.7 59.5999 136.8 58.8 137.2 58.2L153.8 34.2H153.7C141.5 34.2 132 43.0999 132 56.2999C132 65.7999 137.1 74.9 147.8 77.3L149.3 63L138.7 61.5999C137.9 61.4999 137.3 61 137 60.2999Z" fill="black"/>
<path d="M158.9 34.7L156.6 49.5999L168.3 51.2999C169.1 51.4 169.7 51.8999 170 52.5999C170.3 53.2999 170.2 54.1 169.8 54.7L153 77.8C153.2 77.8 153.4 77.8 153.6 77.8C168.3 77.8 175 66.9999 175.1 56.0999C175.1 46.6999 169.7 37.1 158.9 34.7Z" fill="black"/>
<path d="M168.1 52.8999L154.7 50.9999L157.3 33.6999C157.4 33.0999 156.7 32.8999 156.3 33.2999L138.4 59.0999C138.2 59.3999 138.4 59.8999 138.8 59.8999L151 61.5999L149.3 78.3999C149.2 78.8999 149.9 79.1999 150.3 78.7999L168.4 53.7999C168.7 53.3999 168.5 52.9999 168.1 52.8999Z" fill="black"/>
</svg>
