<svg width="180" height="115" viewBox="0 0 180 115" fill="none" xmlns="http://www.w3.org/2000/svg">
<path d="M55.2002 37C61.3002 39.3 65.6002 45.2 65.6002 52.1C65.6002 61 58.4002 68.3 49.4002 68.3C40.5002 68.3 33.2002 61.1 33.2002 52.1C33.2002 45.2 37.5002 39.3 43.6002 37V43.9C41.0002 45.7 39.3002 48.7 39.3002 52.1C39.3002 57.7 43.8002 62.2 49.4002 62.2C55.0002 62.2 59.5002 57.7 59.5002 52.1C59.5002 48.7 57.8002 45.7 55.2002 43.9V37Z" fill="black"/>
<path d="M29.0002 47.4C29.0002 45.7 28.7002 44.2 28.2002 42.9C27.6002 41.6 26.9002 40.4 25.8002 39.5C24.8002 38.5 23.5002 37.8 22.0002 37.3C20.5002 36.8 18.8002 36.5 17.0002 36.5H4.2002V67.8H11.1002V58.4H16.3002C18.1002 58.4 19.7002 58.2 21.2002 57.7C22.7002 57.2 24.1002 56.5 25.2002 55.6C26.3002 54.7 27.3002 53.5 27.9002 52.2C28.7002 50.8 29.0002 49.2 29.0002 47.4ZM22.0002 47.5C22.0002 48.8 21.5002 50 20.6002 50.9C19.6002 51.8 18.3002 52.3 16.6002 52.3H11.1002V42.7H16.4002C18.1002 42.7 19.5002 43.1 20.5002 43.9C21.5002 44.7 22.0002 45.9 22.0002 47.5Z" fill="black"/>
<path d="M149.8 67.8001V65.6H134.4V61.6H124V55H134.4V48.9001H124V42.5H134.4V38.5H149.6V36.3H117.3V67.6H149.8V67.8001Z" fill="black"/>
<path d="M175.8 67.8L168.1 56.6C170.1 55.9 171.7 54.7 173 53.1C174.2 51.5 174.9 49.4 174.9 46.9V46.8C174.9 43.5 173.9 41 171.8 39.2C169.7 37.4 166.8 36.5 163.1 36.5H148.8V50.2H155.7V42.7H162.6C164.3 42.7 165.6 43.1 166.6 43.8C167.6 44.5 168 45.7 168 47.2V47.3C168 48.6 167.5 49.7 166.6 50.5C165.7 51.3 164.4 51.7 162.7 51.7H148.8V67.8H155.7V57.8H161.1L167.8 67.8H175.8Z" fill="black"/>
<path d="M46.2002 33.5H52.5002V56.8H46.2002V33.5Z" fill="black"/>
<path d="M96.1003 68L101.3 59.1L87.7003 42.5H93.9003L91.3003 36.3H77.8003L87.0003 52.2001L96.1003 68ZM101.5 58.7001L105.2 52.2001L114.3 36.4001H99.0003L103.2 47.6H97.1003L101.5 58.7001Z" fill="black"/>
<path d="M85.0002 67.9999L88.6002 61.7999L83.0002 52.1999L73.9002 36.3999H66.7002L75.8002 52.1999L85.0002 67.9999Z" fill="black"/>
<path d="M43.5003 79.8001L45.2003 77.3001H44.7003L43.3003 79.4001L41.9003 77.3001H41.3003L43.0003 79.8001V81.4001H43.5003V79.8001ZM52.3003 79.3001C52.3003 79.0001 52.2003 78.7001 52.1003 78.5001C52.0003 78.2001 51.9003 78.0001 51.7003 77.8001C51.5003 77.6001 51.3003 77.4001 51.0003 77.3001C50.7003 77.2001 50.5003 77.1001 50.1003 77.1001C49.8003 77.1001 49.5003 77.2001 49.2003 77.3001C48.9003 77.4001 48.7003 77.6001 48.5003 77.8001C48.3003 78.0001 48.2003 78.2001 48.1003 78.5001C48.0003 78.8001 47.9003 79.0001 47.9003 79.3001C47.9003 79.6001 48.0003 79.9001 48.1003 80.1001C48.2003 80.4001 48.3003 80.6001 48.5003 80.8001C48.7003 81.0001 48.9003 81.2001 49.2003 81.3001C49.5003 81.4001 49.7003 81.5001 50.1003 81.5001C50.4003 81.5001 50.7003 81.4001 51.0003 81.3001C51.3003 81.2001 51.5003 81.0001 51.7003 80.8001C51.9003 80.6001 52.0003 80.4001 52.1003 80.1001C52.2003 79.9001 52.3003 79.6001 52.3003 79.3001ZM51.8003 79.3001C51.8003 79.5001 51.8003 79.8001 51.7003 80.0001C51.6003 80.2001 51.5003 80.4001 51.4003 80.5001C51.3003 80.7001 51.1003 80.8001 50.9003 80.9001C50.6003 81.0001 50.4003 81.0001 50.2003 81.0001C50.0003 81.0001 49.7003 81.0001 49.5003 80.9001C49.3003 80.8001 49.1003 80.7001 49.0003 80.5001C48.9003 80.3001 48.7003 80.2001 48.7003 80.0001C48.6003 79.8001 48.6003 79.6001 48.6003 79.3001C48.6003 79.0001 48.6003 78.8001 48.7003 78.6001C48.8003 78.4001 48.9003 78.2001 49.0003 78.1001C49.1003 77.9001 49.3003 77.8001 49.5003 77.7001C49.7003 77.6001 49.9003 77.6001 50.2003 77.6001C50.4003 77.6001 50.7003 77.6001 50.9003 77.7001C51.1003 77.8001 51.3003 77.9001 51.4003 78.1001C51.5003 78.3001 51.7003 78.4001 51.7003 78.6001C51.7003 78.9001 51.8003 79.1001 51.8003 79.3001ZM59.2003 77.3001H58.7003V79.7001C58.7003 80.2001 58.6003 80.5001 58.4003 80.7001C58.2003 80.9001 57.9003 81.0001 57.5003 81.0001C57.1003 81.0001 56.8003 80.9001 56.6003 80.6001C56.4003 80.4001 56.3003 80.0001 56.3003 79.6001V77.2001H55.8003V79.6001C55.8003 79.9001 55.8003 80.1001 55.9003 80.4001C56.0003 80.6001 56.1003 80.8001 56.3003 81.0001C56.5003 81.2001 56.6003 81.3001 56.8003 81.3001C57.0003 81.4001 57.2003 81.4001 57.5003 81.4001C57.8003 81.4001 58.0003 81.4001 58.2003 81.3001C58.4003 81.2001 58.6003 81.1001 58.7003 81.0001C58.9003 80.8001 59.0003 80.7001 59.1003 80.4001C59.2003 80.2001 59.2003 79.9001 59.2003 79.6001V77.3001ZM66.4003 81.4001L65.1003 79.7001C65.3003 79.7001 65.4003 79.6001 65.5003 79.6001C65.6003 79.5001 65.8003 79.4001 65.9003 79.3001C66.0003 79.2001 66.1003 79.1001 66.1003 78.9001C66.2003 78.8001 66.2003 78.6001 66.2003 78.4001C66.2003 78.2001 66.2003 78.0001 66.1003 77.9001C66.0003 77.7001 65.9003 77.6001 65.8003 77.5001C65.7003 77.4001 65.5003 77.3001 65.3003 77.2001C65.1003 77.1001 64.9003 77.1001 64.7003 77.1001H62.9003V81.2001H63.4003V79.6001H64.6003L65.8003 81.2001L66.4003 81.4001ZM65.7003 78.5001C65.7003 78.6001 65.7003 78.8001 65.6003 78.9001C65.5003 79.0001 65.5003 79.1001 65.4003 79.2001C65.3003 79.3001 65.2003 79.3001 65.1003 79.4001C65.0003 79.4001 64.8003 79.5001 64.7003 79.5001H63.4003V77.8001H64.7003C65.0003 77.8001 65.3003 77.9001 65.5003 78.0001C65.7003 78.1001 65.7003 78.3001 65.7003 78.5001ZM71.9003 78.3001C71.9003 78.2001 71.9003 78.1001 72.0003 78.0001C72.0003 77.9001 72.1003 77.8001 72.2003 77.8001C72.3003 77.7001 72.4003 77.7001 72.5003 77.7001C72.6003 77.7001 72.7003 77.6001 72.9003 77.6001C73.1003 77.6001 73.3003 77.6001 73.5003 77.7001C73.7003 77.8001 73.9003 77.9001 74.1003 78.0001L74.4003 77.6001C74.2003 77.4001 74.0003 77.3001 73.7003 77.2001C73.5003 77.1001 73.2003 77.1001 72.9003 77.1001C72.7003 77.1001 72.5003 77.1001 72.4003 77.2001C72.2003 77.3001 72.1003 77.3001 72.0003 77.4001C71.9003 77.5001 71.8003 77.6001 71.7003 77.8001C71.6003 77.9001 71.6003 78.1001 71.6003 78.3001C71.6003 78.5001 71.6003 78.6001 71.7003 78.7001C71.8003 78.8001 71.8003 78.9001 72.0003 79.0001C72.1003 79.1001 72.3003 79.2001 72.4003 79.2001C72.6003 79.3001 72.8003 79.3001 73.0003 79.4001C73.2003 79.4001 73.4003 79.5001 73.5003 79.5001C73.6003 79.6001 73.7003 79.6001 73.8003 79.7001C73.9003 79.8001 73.9003 79.8001 74.0003 79.9001C74.0003 80.0001 74.0003 80.1001 74.0003 80.2001C74.0003 80.4001 73.9003 80.6001 73.7003 80.7001C73.5003 80.8001 73.3003 80.9001 73.0003 80.9001C72.7003 80.9001 72.5003 80.9001 72.2003 80.8001C72.0003 80.7001 71.8003 80.6001 71.5003 80.4001L71.2003 80.7001C71.4003 80.9001 71.7003 81.1001 72.0003 81.2001C72.3003 81.3001 72.6003 81.4001 72.9003 81.4001C73.1003 81.4001 73.3003 81.4001 73.5003 81.3001C73.7003 81.2001 73.8003 81.2001 73.9003 81.1001C74.0003 81.0001 74.1003 80.9001 74.2003 80.7001C74.3003 80.6001 74.3003 80.4001 74.3003 80.2001C74.3003 79.9001 74.2003 79.6001 74.0003 79.4001C73.8003 79.2001 73.4003 79.1001 73.0003 79.0001C72.8003 79.0001 72.6003 78.9001 72.4003 78.8001C72.3003 78.7001 72.1003 78.7001 72.1003 78.6001C72.0003 78.5001 72.0003 78.5001 71.9003 78.4001C72.0003 78.5001 71.9003 78.4001 71.9003 78.3001ZM78.0003 81.4001H80.8003V81.0001H78.5003V77.3001H78.0003V81.4001ZM88.0003 79.3001C88.0003 79.0001 87.9003 78.7001 87.8003 78.5001C87.7003 78.2001 87.6003 78.0001 87.4003 77.8001C87.2003 77.6001 87.0003 77.4001 86.7003 77.3001C86.4003 77.2001 86.2003 77.1001 85.8003 77.1001C85.5003 77.1001 85.2003 77.2001 84.9003 77.3001C84.6003 77.4001 84.4003 77.6001 84.2003 77.8001C84.0003 78.0001 83.9003 78.2001 83.8003 78.5001C83.7003 78.8001 83.6003 79.0001 83.6003 79.3001C83.6003 79.6001 83.7003 79.9001 83.8003 80.1001C83.9003 80.4001 84.0003 80.6001 84.2003 80.8001C84.4003 81.0001 84.6003 81.2001 84.9003 81.3001C85.2003 81.4001 85.4003 81.5001 85.8003 81.5001C86.1003 81.5001 86.4003 81.4001 86.7003 81.3001C87.0003 81.2001 87.2003 81.0001 87.4003 80.8001C87.6003 80.6001 87.7003 80.4001 87.8003 80.1001C88.0003 79.9001 88.0003 79.6001 88.0003 79.3001ZM87.5003 79.3001C87.5003 79.5001 87.5003 79.8001 87.4003 80.0001C87.3003 80.2001 87.2003 80.4001 87.1003 80.5001C87.0003 80.7001 86.8003 80.8001 86.6003 80.9001C86.4003 81.0001 86.1003 81.0001 85.9003 81.0001C85.7003 81.0001 85.4003 81.0001 85.2003 80.9001C85.0003 80.8001 84.8003 80.7001 84.7003 80.5001C84.6003 80.3001 84.4003 80.2001 84.4003 80.0001C84.3003 79.8001 84.3003 79.6001 84.3003 79.3001C84.3003 79.0001 84.3003 78.8001 84.4003 78.6001C84.5003 78.4001 84.6003 78.2001 84.7003 78.1001C84.8003 77.9001 85.0003 77.8001 85.2003 77.7001C85.4003 77.6001 85.6003 77.6001 85.9003 77.6001C86.1003 77.6001 86.4003 77.6001 86.6003 77.7001C86.8003 77.8001 87.0003 77.9001 87.1003 78.1001C87.2003 78.3001 87.4003 78.4001 87.4003 78.6001C87.5003 78.9001 87.5003 79.1001 87.5003 79.3001ZM95.2003 80.8001V79.2001H93.5003V79.6001H94.8003V80.6001C94.7003 80.7001 94.5003 80.8001 94.3003 80.9001C94.1003 81.0001 93.9003 81.0001 93.6003 81.0001C93.3003 81.0001 93.1003 81.0001 92.9003 80.9001C92.7003 80.8001 92.5003 80.7001 92.4003 80.5001C92.3003 80.3001 92.1003 80.2001 92.1003 80.0001C92.0003 79.8001 92.0003 79.6001 92.0003 79.3001C92.0003 79.1001 92.0003 78.8001 92.1003 78.6001C92.2003 78.4001 92.3003 78.2001 92.4003 78.1001C92.5003 77.9001 92.7003 77.8001 92.9003 77.7001C93.1003 77.6001 93.3003 77.6001 93.5003 77.6001C93.6003 77.6001 93.8003 77.6001 93.9003 77.6001C94.0003 77.6001 94.1003 77.7001 94.2003 77.7001C94.3003 77.7001 94.4003 77.8001 94.5003 77.8001C94.6003 77.9001 94.7003 77.9001 94.7003 78.0001L95.0003 77.6001C94.9003 77.5001 94.8003 77.4001 94.7003 77.4001C94.6003 77.3001 94.5003 77.3001 94.4003 77.2001C94.3003 77.1001 94.1003 77.1001 94.0003 77.1001C93.9003 77.1001 93.7003 77.1001 93.5003 77.1001C93.2003 77.1001 92.9003 77.2001 92.7003 77.3001C92.4003 77.4001 92.2003 77.6001 92.0003 77.8001C91.8003 78.0001 91.7003 78.2001 91.6003 78.5001C91.5003 78.8001 91.4003 79.0001 91.4003 79.3001C91.4003 79.6001 91.4003 79.9001 91.5003 80.1001C91.6003 80.4001 91.7003 80.6001 91.9003 80.8001C92.1003 81.0001 92.3003 81.1001 92.6003 81.3001C92.9003 81.4001 93.2003 81.5001 93.5003 81.5001C93.9003 81.5001 94.2003 81.4001 94.4003 81.3001C94.8003 81.2001 95.0003 81.0001 95.2003 80.8001ZM100.8 77.2001H100.4L98.5003 81.4001H99.0003L99.5003 80.3001H101.8L102.3 81.4001H102.8L100.8 77.2001ZM101.5 79.9001H99.6003L100.5 77.8001L101.5 79.9001ZM109.1 80.6001L106.5 77.3001H106.1V81.4001H106.6V78.0001L109.3 81.4001H109.7V77.3001H109.2V80.6001H109.1ZM118 79.5001V81.4001H118.5V77.3001H118V79.1001H115.6V77.3001H115.1V81.4001H115.6V79.5001H118ZM125.2 77.3001H122.2V81.4001H125.2V81.0001H122.6V79.6001H124.9V79.2001H122.6V77.8001H125.1V77.3001H125.2ZM132.2 81.4001L130.9 79.7001C131.1 79.7001 131.2 79.6001 131.3 79.6001C131.4 79.5001 131.6 79.4001 131.7 79.3001C131.8 79.2001 131.9 79.1001 131.9 78.9001C132 78.8001 132 78.6001 132 78.4001C132 78.2001 132 78.0001 131.9 77.9001C131.8 77.7001 131.7 77.6001 131.6 77.5001C131.5 77.4001 131.3 77.3001 131.1 77.2001C130.9 77.1001 130.7 77.1001 130.5 77.1001H128.7V81.2001H129.2V79.6001H130.4L131.6 81.2001L132.2 81.4001ZM131.6 78.5001C131.6 78.6001 131.6 78.8001 131.5 78.9001C131.4 79.0001 131.4 79.1001 131.3 79.2001C131.2 79.3001 131.1 79.3001 131 79.4001C130.9 79.4001 130.7 79.5001 130.6 79.5001H129.3V77.8001H130.6C130.9 77.8001 131.2 77.9001 131.4 78.0001C131.5 78.1001 131.6 78.3001 131.6 78.5001ZM138.6 77.3001H135.6V81.4001H138.6V81.0001H136V79.6001H138.3V79.2001H136V77.8001H138.5V77.3001H138.6Z" fill="black"/>
</svg>
