<svg width="180" height="115" viewBox="0 0 180 115" fill="none" xmlns="http://www.w3.org/2000/svg">
<path d="M107.1 100.2C101.9 102.4 96.5004 103.5 90.9004 103.6V111.1C97.6004 111 104 109.6 109.8 107.1L107.1 100.2C107.2 100.1 107.2 100.1 107.1 100.2Z" fill="black"/>
<path d="M121.1 90.6998C117.5 94.2998 113.4 97.1998 108.8 99.3998L111.3 106.3C117.1 103.6 122.2 99.7998 126.5 95.1998L122 89.7998C121.7 90.0998 121.4 90.3998 121.1 90.6998Z" fill="black"/>
<path d="M130.5 76.7C128.7 81 126.2 84.9 123.2 88.4L127.7 93.8C131.6 89.3 134.8 84 136.9 78.3L131.2 75C131 75.6 130.8 76.2 130.5 76.7Z" fill="black"/>
<path d="M47.6001 73.7998L42.5001 76.6998C42.2001 75.6998 41.9001 74.7998 41.6001 73.7998H47.6001Z" fill="black"/>
<path d="M138.4 73.7998C138.1 74.7998 137.9 75.7998 137.5 76.6998L132.4 73.7998H138.4Z" fill="black"/>
<path d="M49.5001 76.7C49.3001 76.1 49.0001 75.6 48.8001 75L43.1001 78.3C45.2001 84 48.3001 89.3 52.3001 93.8L56.8001 88.4C53.7001 85 51.3001 81 49.5001 76.7Z" fill="black"/>
<path d="M72.8003 100.1L70.3003 107C76.1003 109.5 82.5003 110.9 89.2003 111V103.5C83.5003 103.5 78.0003 102.3 72.8003 100.1Z" fill="black"/>
<path d="M58.9 90.6998C58.6 90.3998 58.3 90.0998 58 89.7998L53.5 95.1998C57.8 99.7998 63 103.6 68.7 106.3L71.2 99.3998C66.6 97.1998 62.5 94.2998 58.9 90.6998Z" fill="black"/>
<path d="M130 74.3998C128.2 79.1998 125.6 83.5998 122.3 87.4998L116.4 80.3998C118.2 78.3998 119.8 76.1998 121.1 73.7998H129L130 74.3998Z" fill="black"/>
<path d="M105 88.8999L108.4 98.0999C113.2 95.7999 117.6 92.5999 121.2 88.6999L115.3 81.5999C112.3 84.6999 108.8 87.0999 105 88.8999Z" fill="black"/>
<path d="M90.9004 92.1999V102.3C96.5004 102.2 101.9 101 106.8 98.8999L103.4 89.5999C99.5004 91.1999 95.3004 92.0999 90.9004 92.1999Z" fill="black"/>
<path d="M63.6004 80.3L57.6004 87.4C54.3004 83.6 51.7004 79.2 49.9004 74.3L51.0004 73.7H59.0004C60.3004 76.1 61.9004 78.3 63.6004 80.3Z" fill="black"/>
<path d="M64.8003 81.5999L58.8003 88.6999C62.4003 92.5999 66.8003 95.7999 71.6003 98.0999L75.0003 88.7999C71.2003 87.0999 67.8003 84.5999 64.8003 81.5999Z" fill="black"/>
<path d="M73.2002 98.8999C78.1002 101 83.5002 102.2 89.1002 102.3V92.1999C84.7002 92.0999 80.5002 91.1999 76.6002 89.5999L73.2002 98.8999Z" fill="black"/>
<path d="M140.9 34.3999L138.3 38.1999C137.7 39.0999 137.2 40.1999 137.1 41.1999H121.7C116 29.5999 104 21.4999 90.2002 21.4999C76.4002 21.4999 64.4002 29.4999 58.7002 41.1999H43.0002C42.8002 40.0999 42.4002 39.0999 41.8002 38.1999L39.2002 34.3999L43.9002 34.2999C46.3002 34.1999 48.5002 33.0999 49.9002 31.0999C51.3002 29.1999 51.7002 26.6999 51.0002 24.3999L49.7002 19.8999L54.2002 21.1999C56.5002 21.8999 58.9002 21.4999 60.9002 20.0999C62.8002 18.6999 64.0002 16.4999 64.1002 14.0999L64.2002 9.3999L68.0002 11.9999C70.0002 13.3999 72.4002 13.6999 74.7002 12.9999C77.0002 12.2999 78.8002 10.4999 79.6002 8.2999L81.2002 3.8999L84.0002 7.5999C85.5002 9.4999 87.7002 10.5999 90.1002 10.5999C92.5002 10.5999 94.7002 9.4999 96.2002 7.5999L99.0002 3.8999L100.6 8.2999C101.4 10.5999 103.2 12.2999 105.5 12.9999C107.8 13.6999 110.2 13.3999 112.2 11.9999L116 9.3999L116.1 14.0999C116.2 16.4999 117.3 18.6999 119.3 20.0999C121.2 21.4999 123.7 21.8999 126 21.1999L130.5 19.8999L129.2 24.3999C128.5 26.6999 128.9 29.1999 130.3 31.0999C131.7 32.9999 133.9 34.1999 136.3 34.2999L140.9 34.3999Z" fill="black"/>
<path d="M18.4002 59.8999C18.4002 61.5999 19.1002 63.3999 21.5002 63.3999C23.2002 63.3999 24.4002 62.4999 24.7002 60.8999C25.1002 59.1999 24.5002 57.6999 21.9002 55.7999C18.4002 53.2999 17.2002 51.3999 17.7002 48.4999C18.2002 45.8999 20.3002 43.8999 23.9002 43.8999C29.5002 43.8999 30.1002 47.8999 29.9002 49.6999H26.5002C26.5002 48.5999 26.2002 46.4999 23.7002 46.4999C22.1002 46.4999 21.2002 47.2999 21.0002 48.6999C20.7002 50.1999 21.2002 51.1999 23.9002 53.0999C28.0002 55.8999 28.8002 58.0999 28.1002 61.2999C27.5002 63.9999 25.3002 65.9999 21.4002 65.9999C15.7002 65.9999 14.7002 62.4999 14.9002 59.8999H18.4002Z" fill="black"/>
<path d="M44.4002 57.7999C43.5002 61.9999 41.3002 65.8999 36.5002 65.8999C31.7002 65.8999 30.4002 62.4999 31.6002 57.1999C32.8002 52.0999 35.7002 49.0999 39.4002 49.0999C44.4002 49.1999 45.5002 52.9999 44.4002 57.7999ZM35.1002 57.5999C34.2002 61.3999 34.8002 63.2999 36.9002 63.2999C39.0002 63.2999 40.2002 60.9999 41.0002 57.5999C41.7002 54.5999 41.9002 51.7999 39.3002 51.7999C37.2002 51.7999 35.8002 54.4999 35.1002 57.5999Z" fill="black"/>
<path d="M45.6001 65.6999L50.9001 43.2H54.4001L49.1001 65.6999H45.6001Z" fill="black"/>
<path d="M65.0004 61.8C64.7004 63.1 64.3004 64.8 64.1004 65.7H60.7004C60.7004 65.3 60.8004 64.7 61.0004 64.1C60.1004 65.3 58.9004 65.9 57.0004 65.9C53.5004 65.9 52.6004 63.2 53.2004 60.6C53.9004 57.5 56.3004 56.5 59.3004 56C60.5004 55.8 61.7004 55.7 62.9004 55.6L63.2004 54.2C63.5004 52.8 63.4004 51.4 61.3004 51.4C59.8004 51.4 59.2004 52.3 58.8004 53.6H55.5004C56.1004 51 57.7004 49 61.7004 49C65.7004 49 67.5004 50.7 66.6004 54.4L65.0004 61.8ZM62.4004 58C61.5004 58.1 60.6004 58.1 59.8004 58.3C58.2004 58.6 57.0004 59.2 56.6004 60.7C56.3004 62 56.6004 63.3 58.4004 63.3C60.4004 63.3 61.5004 61.9 62.2004 59.1L62.4004 58Z" fill="black"/>
<path d="M70.3003 54.8999C70.9003 52.2999 71.3003 50.5999 71.5003 49.3999H74.8003C74.7003 49.9999 74.6003 50.5999 74.3003 52.0999C75.5003 49.9999 77.3003 49.0999 79.6003 49.0999L78.8003 52.5999C75.8003 52.4999 74.1003 53.8999 73.3003 57.1999L71.3003 65.5999H67.8003L70.3003 54.8999Z" fill="black"/>
<path d="M91.9 55.7999H84.2L82.6 62.7999H91.6L90.5 65.5999H78.5L83.5 44.2H95L94.3 47H86.3L84.9 53H92.6L91.9 55.7999Z" fill="black"/>
<path d="M95.8001 54.4998C96.6001 51.1998 96.8001 50.0998 96.9001 49.4998H100.3C100.3 49.8998 100.1 50.7998 100 51.3998C100.9 50.1998 102.2 49.2998 104.3 49.2998C107 49.2998 108.7 50.8998 107.8 54.6998L105.2 65.7998H101.7L104.2 54.8998C104.6 53.0998 104.2 51.9998 102.5 51.9998C100.7 51.9998 99.6001 53.0998 98.9001 55.8998L96.6001 65.7998H93.1001L95.8001 54.4998Z" fill="black"/>
<path d="M113.5 58.1999C113.3 59.0999 113.2 59.7999 113.2 60.4999C113.2 62.1999 113.8 63.1999 115.3 63.1999C117 63.1999 117.7 62.0999 118.2 61.0999H121.6C120.9 63.0999 119.1 65.7999 115 65.7999C109.5 65.7999 109.4 61.0999 110.2 57.1999C111.2 52.8999 113.6 49.0999 118.1 49.0999C123.1 49.0999 123.9 53.0999 122.7 56.9999L122.4 58.1999H113.5ZM119.5 55.8999C119.6 55.2999 119.8 54.6999 119.8 54.0999C119.8 52.7999 119.3 51.7999 117.7 51.7999C115.8 51.7999 114.6 53.7999 114 55.8999H119.5Z" fill="black"/>
<path d="M126.3 54.8999C126.9 52.2999 127.3 50.5999 127.5 49.3999H130.8C130.7 49.9999 130.6 50.5999 130.3 52.0999C131.5 49.9999 133.3 49.0999 135.6 49.0999L134.8 52.5999C131.8 52.4999 130.1 53.8999 129.3 57.1999L127.3 65.5999H123.8L126.3 54.8999Z" fill="black"/>
<path d="M146.2 64.1999C145.2 68.5999 143.6 71.8 138.4 71.8C133.2 71.8 132.8 68.7 133.1 66.9H136.4C136.3 67.9 136.7 69.1999 138.7 69.1999C141.1 69.1999 142 67.4 142.6 64.8L142.9 63.4C142 64.7 140.6 65.4 138.8 65.4C135 65.4 134 62 135 57.4C136.2 52.1 138.8 49.2 142.2 49.2C144.4 49.2 145.3 50.3 145.6 51.2C145.8 50.6 146 49.7 146.1 49.4H149.5C149.3 50.3 148.8 52 148.3 54.2L146.2 64.1999ZM138.7 57.5C137.9 61.2 138.5 62.7999 140.4 62.7999C142.4 62.7999 143.6 61 144.5 57.5C145.5 53.6 145.2 51.9 142.9 51.9C141 51.8 139.5 53.8 138.7 57.5Z" fill="black"/>
<path d="M155.2 49.3999C155.5 53.9999 155.3 60.7999 155.2 62.4999C156.1 60.1999 158.9 54.3999 161.4 49.3999H164.9L156 66.5999C153.4 71.5999 151.8 71.7999 149.2 71.7999C148.7 71.7999 147.9 71.6999 147.4 71.5999L148.1 68.8999C148.4 68.9999 149 68.9999 149.5 68.9999C150.9 68.9999 151.7 68.3999 152.7 66.3999L151.7 49.3999H155.2Z" fill="black"/>
</svg>
