<svg width="180" height="115" viewBox="0 0 180 115" fill="none" xmlns="http://www.w3.org/2000/svg">
<path d="M163.7 60.8H168V53.1L175.4 41.5H170.6L165.9 49.3L161.3 41.5H156.3L163.7 53.2V60.8Z" fill="black"/>
<path d="M144.7 61.0999C148.2 61.0999 151 59.7 153 58V49.5999H144.6V53.2999H148.9V56.0999C147.8 56.8999 146.4 57.2999 144.9 57.2999C141.5 57.2999 139 54.7 139 51.2C139 47.9 141.5 45.0999 144.6 45.0999C146.8 45.0999 148.2 45.7999 149.7 47.0999L152.4 43.9C150.4 42.2 148.3 41.2 144.8 41.2C138.9 41.2 134.7 45.7 134.7 51.2C134.5 56.9 138.7 61.0999 144.7 61.0999Z" fill="black"/>
<path d="M113.3 60.7999H117.6V54.5999H120.9L125.1 60.7999H130.1L125.4 53.8999C127.9 52.9999 129.5 50.9999 129.5 47.8999C129.5 45.9999 128.9 44.4999 127.8 43.3999C126.5 42.0999 124.6 41.3999 122.2 41.3999H113.4V45.1999H121.9C124 45.1999 125.2 46.0999 125.2 47.9999C125.2 49.6999 124 50.7999 121.9 50.7999H113.3V60.7999Z" fill="black"/>
<path d="M97.0003 45.1999H102.7H107.4V41.3999H92.8003V45.1999H97.0003Z" fill="black"/>
<path d="M92.8003 60.7999H107.5V56.9999H97.0003V52.8999H106.1V49.0999H102.7H97.0003H92.8003V60.7999Z" fill="black"/>
<path d="M68.8999 60.8H73.0999V48.5L82.4999 60.8H86.0999V41.5H81.8999V53.4L72.7999 41.5H68.8999V60.8Z" fill="black"/>
<path d="M52.6003 45.1999H58.4003H62.9003V41.3999H48.3003V45.1999H52.6003Z" fill="black"/>
<path d="M48.3003 60.7999H63.0003V56.9999H52.6003V52.8999H61.7003V49.0999H58.4003H52.6003H48.4003V60.7999H48.3003Z" fill="black"/>
<path d="M43.6999 49.2001V41.3H41.6999V47H39.4999V42.1H37.4999V47H35.3999V41.5H33.3999V49.3L43.6999 49.2001ZM43.6999 60.5V58.2001H39.5999V54H43.6999V51.7001H33.3999V54H37.4999V58.2001H33.3999V60.5H43.6999ZM43.6999 67.6V65.3001H35.4999V62.2001H33.3999V70.8001H35.4999V67.7H43.6999V67.6Z" fill="black"/>
<path d="M94.8001 68.5999H48.6001V70.4999H94.8001V68.5999Z" fill="black"/>
<path d="M50.7001 13C33.9001 20.8 22.3001 37.7999 22.3001 57.5C22.3001 84.6 44.3001 106.6 71.4001 106.6C92.8001 106.6 110.9 93 117.7 73.9H122.7C115.8 95.6 95.4001 111.4 71.4001 111.4C41.7001 111.4 17.6001 87.2999 17.6001 57.5999C17.6001 43.4999 23.0001 30.7 31.9001 21.1C37.3001 17 43.7001 14.2 50.7001 13ZM81.7001 4.69995C97.8001 7.79995 111.4 18.2 118.9 32.2H113.4C110.1 26.7 105.7 21.9 100.6 18.1C95.3001 12.4 88.9001 7.79995 81.7001 4.69995Z" fill="black"/>
<path d="M79.2001 102C91.1001 96.5 100.3 86.3 104.8 73.9H109.8C107.4 81.5 103.3 88.3 98.1001 94C92.4001 98.1 86.0001 100.8 79.2001 102ZM58.4001 3.69995C79.0001 3.69995 96.9001 15.2 106 32.2H100.5C91.9001 17.9 76.3001 8.39995 58.4001 8.39995C31.3001 8.39995 9.3001 30.4 9.3001 57.5C9.3001 73.6 17.1001 88 29.1001 96.9C34.5001 102.6 40.9001 107.2 48.0001 110.3C23.3001 105.5 4.6001 83.7 4.6001 57.5C4.6001 27.7999 28.7001 3.69995 58.4001 3.69995Z" fill="black"/>
<path d="M167.4 71.6999H168.6V66.7999L172.4 71.6999H173.4V64.7999H172.2V69.5999L168.5 64.7999H167.4V71.6999ZM161.4 68.8999L162.6 66.0999L163.8 68.8999H161.4ZM159 71.6999H160.2L161 69.9999H164.3L165 71.6999H166.3L163.3 64.6999H162.2L159 71.6999ZM155.2 71.7999C156.4 71.7999 157.4 71.2999 158.1 70.6999V67.7999H155.2V68.8999H157V70.1999C156.6 70.4999 156 70.6999 155.3 70.6999C153.9 70.6999 153 69.6999 153 68.1999C153 66.8999 154 65.6999 155.2 65.6999C156.1 65.6999 156.6 65.9999 157.1 66.3999L157.9 65.4999C157.2 64.8999 156.5 64.5999 155.2 64.5999C153.1 64.5999 151.6 66.1999 151.6 68.1999C151.6 70.1999 153 71.7999 155.2 71.7999ZM146.8 70.6999C145.4 70.6999 144.5 69.5999 144.5 68.1999C144.5 66.8999 145.5 65.6999 146.8 65.6999C148.2 65.6999 149.1 66.7999 149.1 68.1999C149.2 69.4999 148.2 70.6999 146.8 70.6999ZM146.8 71.7999C148.9 71.7999 150.4 70.1999 150.4 68.1999C150.4 66.1999 148.9 64.5999 146.8 64.5999C144.7 64.5999 143.2 66.1999 143.2 68.1999C143.2 70.0999 144.7 71.7999 146.8 71.7999ZM137.8 71.6999H142.6V70.5999H139V64.7999H137.8V71.6999ZM133.9 71.7999C135.4 71.7999 136.4 70.9999 136.4 69.6999C136.4 68.4999 135.6 67.9999 134.2 67.6999C132.9 67.3999 132.6 67.0999 132.6 66.5999C132.6 66.0999 133 65.7999 133.7 65.7999C134.3 65.7999 135 65.9999 135.6 66.4999L136.3 65.5999C135.6 64.9999 134.8 64.6999 133.8 64.6999C132.4 64.6999 131.4 65.4999 131.4 66.6999C131.4 67.9999 132.2 68.3999 133.7 68.7999C135 69.0999 135.3 69.3999 135.3 69.8999C135.3 70.3999 134.8 70.7999 134.1 70.7999C133.2 70.7999 132.6 70.4999 131.9 69.8999L131.2 70.7999C131.9 71.3999 132.9 71.7999 133.9 71.7999ZM122.6 68.1999V65.8999H124.4C125.3 65.8999 125.8 66.2999 125.8 66.9999C125.8 67.6999 125.2 68.1999 124.4 68.1999H122.6ZM121.4 71.6999H122.6V69.2999H124.1L125.8 71.6999H127.2L125.3 69.0999C126.3 68.7999 126.9 68.0999 126.9 66.9999C126.9 65.6999 126 64.7999 124.3 64.7999H121.2V71.6999H121.4ZM116.8 71.7999C118.6 71.7999 119.8 70.7999 119.8 68.6999V64.7999H118.6V68.7999C118.6 70.0999 117.9 70.6999 116.9 70.6999C115.8 70.6999 115.2 69.9999 115.2 68.6999V64.7999H114V68.7999C113.8 70.6999 115 71.7999 116.8 71.7999ZM108.9 70.6999C107.5 70.6999 106.6 69.5999 106.6 68.1999C106.6 66.8999 107.6 65.6999 108.9 65.6999C110.3 65.6999 111.2 66.7999 111.2 68.1999C111.2 69.4999 110.2 70.6999 108.9 70.6999ZM108.8 71.7999C110.9 71.7999 112.4 70.1999 112.4 68.1999C112.4 66.1999 110.9 64.5999 108.8 64.5999C106.7 64.5999 105.2 66.1999 105.2 68.1999C105.2 70.0999 106.7 71.7999 108.8 71.7999ZM101.1 71.6999H102.3V68.8999L105 64.6999H103.6L101.6 67.7999L99.7003 64.6999H98.3003L101 68.8999V71.6999H101.1Z" fill="black"/>
</svg>
